<svg width="24" height="24" viewBox="0 0 24 24" fill="none" xmlns="http://www.w3.org/2000/svg">
<g clip-path="url(#clip0_1633_102)">
<path d="M18.6 19.5H21V21.5H15V15.5H17V18.23C18.83 16.76 20 14.52 20 12C20 7.93005 16.94 4.56005 13 4.07005V2.05005C18.05 2.55005 22 6.81005 22 12C22 14.99 20.68 17.67 18.6 19.5ZM4 12C4 9.48005 5.17 7.23005 7 5.77005V8.50005H9V2.50005H3V4.50005H5.4C3.32 6.33005 2 9.01005 2 12C2 17.19 5.95 21.4501 11 21.9501V19.93C7.06 19.44 4 16.07 4 12Z" fill="black"/>
<path d="M7.29688 9.13477C7.51172 9.16081 7.70703 9.18034 7.88281 9.19336C8.05208 9.20638 8.19857 9.2194 8.32227 9.23242C8.46549 9.24544 8.59245 9.25521 8.70312 9.26172C8.82031 9.26172 8.97005 9.25846 9.15234 9.25195C9.30859 9.24544 9.50716 9.23568 9.74805 9.22266C9.98893 9.20964 10.2852 9.18685 10.6367 9.1543C10.4674 9.25195 10.3275 9.34961 10.2168 9.44727C10.1126 9.54492 10.0312 9.63281 9.97266 9.71094C9.90104 9.80208 9.84896 9.89323 9.81641 9.98438C9.79688 10.1081 9.80339 10.349 9.83594 10.707C9.84896 10.8568 9.86849 11.0423 9.89453 11.2637C9.92708 11.4785 9.96615 11.7357 10.0117 12.0352C10.0638 12.3281 10.1257 12.6667 10.1973 13.0508C10.2754 13.4349 10.3633 13.8711 10.4609 14.3594C10.5911 13.9883 10.6986 13.6595 10.7832 13.373C10.8678 13.0801 10.9395 12.8294 10.998 12.6211C11.0632 12.3867 11.1185 12.1784 11.1641 11.9961C11.2096 11.8073 11.265 11.5632 11.3301 11.2637C11.3822 11.0098 11.4505 10.681 11.5352 10.2773C11.6198 9.8737 11.724 9.37565 11.8477 8.7832L12.1992 8.83203C12.2318 9.29427 12.2643 9.70117 12.2969 10.0527C12.3359 10.4043 12.3685 10.7038 12.3945 10.9512C12.4206 11.2376 12.4466 11.485 12.4727 11.6934C12.4987 11.8822 12.5378 12.1003 12.5898 12.3477C12.6354 12.556 12.694 12.8132 12.7656 13.1191C12.8372 13.4186 12.9316 13.7572 13.0488 14.1348C13.166 13.6725 13.2702 13.2591 13.3613 12.8945C13.459 12.5299 13.5404 12.2077 13.6055 11.9277C13.6771 11.6478 13.7357 11.4069 13.7812 11.2051C13.8333 11.0033 13.8757 10.834 13.9082 10.6973C13.9798 10.3717 14.0221 10.1536 14.0352 10.043C14.0286 9.91927 13.9993 9.79883 13.9473 9.68164C13.9017 9.57747 13.8301 9.46354 13.7324 9.33984C13.6348 9.21615 13.4915 9.0957 13.3027 8.97852C13.6999 8.99154 14.0221 9.0013 14.2695 9.00781C14.5234 9.00781 14.7253 9.00781 14.875 9.00781H15.2656H15.6172C15.7474 9.00781 15.9167 9.00781 16.125 9.00781C16.3398 9.0013 16.6133 8.99154 16.9453 8.97852C16.6589 9.12826 16.4277 9.26497 16.252 9.38867C16.0762 9.51237 15.9395 9.61654 15.8418 9.70117C15.7246 9.80534 15.64 9.89323 15.5879 9.96484C15.5358 10.0951 15.4512 10.388 15.334 10.8438C15.2819 11.0391 15.2233 11.2832 15.1582 11.5762C15.0931 11.8626 15.015 12.2077 14.9238 12.6113C14.8392 13.015 14.7415 13.487 14.6309 14.0273C14.5202 14.5612 14.3965 15.1732 14.2598 15.8633L12.5703 15.6875L11.8477 12.6504C11.737 13.2038 11.6491 13.653 11.584 13.998C11.5189 14.3366 11.4701 14.6003 11.4375 14.7891C11.3984 15.0169 11.3757 15.1829 11.3691 15.2871C11.3626 15.3783 11.3561 15.4661 11.3496 15.5508C11.3431 15.6224 11.3333 15.7005 11.3203 15.7852C11.3138 15.8698 11.304 15.9479 11.291 16.0195H9.5625C9.39323 15.2773 9.24023 14.623 9.10352 14.0566C8.97331 13.4837 8.85612 12.9824 8.75195 12.5527C8.64779 12.123 8.55664 11.7585 8.47852 11.459C8.4069 11.1595 8.3418 10.9089 8.2832 10.707C8.15299 10.2383 8.05859 9.94857 8 9.83789C7.95443 9.78581 7.89583 9.72396 7.82422 9.65234C7.76562 9.59375 7.69401 9.52214 7.60938 9.4375C7.51823 9.34635 7.41406 9.24544 7.29688 9.13477Z" fill="black"/>
</g>
<defs>
<clipPath id="clip0_1633_102">
<rect width="24" height="24" fill="white"/>
</clipPath>
</defs>
</svg>
